<svg id="Flat" height="512" viewBox="0 0 512 512" width="512" xmlns="http://www.w3.org/2000/svg"><path d="m488 488h-464a8 8 0 0 1 0-16h464a8 8 0 0 1 0 16z" fill="#e1e3e6"/><path d="m169.581 310.99a7.954 7.954 0 0 1 -4.232-1.217l-47.644-29.773h-85.705a8 8 0 0 1 0-16h88a7.993 7.993 0 0 1 4.239 1.216l49.59 30.99a8 8 0 0 1 -4.247 14.785z" fill="#7e8589"/><path d="m400 312a80 80 0 1 0 80 80 80 80 0 0 0 -80-80zm0 128a48 48 0 1 1 48-48 48 48 0 0 1 -48 48z" fill="#9aa3a8"/><path d="m112 312a80 80 0 1 0 80 80 80 80 0 0 0 -80-80zm0 128a48 48 0 1 1 48-48 48 48 0 0 1 -48 48z" fill="#9aa3a8"/><path d="m255.991 400a8 8 0 0 1 -6.709-12.347l80.012-123.653h-124.943l-85.635 132.345a8 8 0 0 1 -13.434-8.692l88-136a8 8 0 0 1 6.718-3.653h144a8 8 0 0 1 6.717 12.346l-88 136a8 8 0 0 1 -6.726 3.654z" fill="#f2c837"/><path d="m256 400a8 8 0 0 1 -7.4-4.956l-56-136-16.03-40.075a8 8 0 1 1 14.855-5.942l16 40 55.975 135.926a8 8 0 0 1 -7.4 11.047z" fill="#f2c837"/><rect fill="#7e8589" height="32" rx="16" width="64" x="151.999" y="191.999"/><path d="m400 400a8 8 0 0 1 -7.4-4.956l-56-136-16.03-40.075a8 8 0 1 1 14.855-5.942l16 40 55.975 135.926a8 8 0 0 1 -7.4 11.047z" fill="#f2c837"/><circle cx="399.999" cy="391.999" fill="#ffd33a" r="16"/><path d="m400 416a24 24 0 1 1 24-24 24.027 24.027 0 0 1 -24 24zm0-32a8 8 0 1 0 8 8 8.009 8.009 0 0 0 -8-8z" fill="#7e8589"/><path d="m216 112a8 8 0 0 1 -7.574-5.426c-7.836-23.055-16.141-35.034-23.99-34.586a8 8 0 1 1 -.873-15.976c15.15-.826 25.337 11.91 32.437 26.507a78.89 78.89 0 0 1 7.42-12.6c7.2-9.744 15.626-14.424 25.016-13.912a8 8 0 1 1 -.873 15.976c-7.839-.464-16.154 11.53-23.989 34.586a8 8 0 0 1 -7.574 5.431z" fill="#b37a60"/><path d="m312 160a8 8 0 0 1 -7.574-5.426c-7.836-23.055-16.146-35.036-23.99-34.586a8 8 0 1 1 -.873-15.976c15.137-.812 25.337 11.91 32.437 26.507a78.89 78.89 0 0 1 7.42-12.6c7.205-9.744 15.615-14.43 25.016-13.912a8 8 0 1 1 -.873 15.976c-7.832-.46-16.154 11.53-23.989 34.586a8 8 0 0 1 -7.574 5.431z" fill="#b37a60"/><circle cx="439.999" cy="87.999" fill="#ff750a" r="48"/><path d="m152 136a24.006 24.006 0 0 1 -24 24 23.725 23.725 0 0 1 -12.14-3.31 39.969 39.969 0 0 1 -55.72 0 23.725 23.725 0 0 1 -12.14 3.31 24 24 0 0 1 0-48 23.1 23.1 0 0 1 3.24.22 40.006 40.006 0 0 1 73.52 0 23.1 23.1 0 0 1 3.24-.22 24.006 24.006 0 0 1 24 24z" fill="#a3d4f7"/><g fill="#ffd33a"><path d="m111.989 384a8 8 0 0 1 -.874-15.952l144-16a8 8 0 0 1 1.768 15.9l-144 16a8.186 8.186 0 0 1 -.894.052z"/><path d="m256.008 432a8.2 8.2 0 0 1 -.893-.05l-144-16a8 8 0 0 1 1.768-15.9l144 16a8 8 0 0 1 -.875 15.95z"/><circle cx="111.999" cy="391.999" r="16"/></g><path d="m112 416a24 24 0 1 1 24-24 24.027 24.027 0 0 1 -24 24zm0-32a8 8 0 1 0 8 8 8.009 8.009 0 0 0 -8-8z" fill="#7e8589"/><circle cx="255.999" cy="391.999" fill="#f2c837" r="32"/><path d="m256 432a40 40 0 1 1 40-40 40.045 40.045 0 0 1 -40 40zm0-64a24 24 0 1 0 24 24 24.027 24.027 0 0 0 -24-24z" fill="#7e8589"/><path d="m275.675 454.85a8 8 0 0 1 -7.531-5.3l-19.676-54.85a8 8 0 0 1 15.061-5.4l19.676 54.849a8.005 8.005 0 0 1 -7.53 10.7z" fill="#ffd33a"/><path d="m260.4 459.63a8 8 0 0 1 -2.388-15.636l30.539-9.561a8 8 0 1 1 4.78 15.27l-30.539 9.56a8 8 0 0 1 -2.392.367z" fill="#ffd33a"/><path d="m392 232a8 8 0 0 1 -5.657-13.657c4.785-4.785 4.841-7.346 4.745-8.017a3.365 3.365 0 0 0 -.851-1.639l-60.3 15.074a8 8 0 0 1 -3.881-15.522l64-16a7.994 7.994 0 0 1 5.519.606c.989.494 9.712 5.115 11.3 14.88 1.177 7.258-1.924 14.637-9.218 21.932a7.976 7.976 0 0 1 -5.657 2.343z" fill="#7e8589"/></svg>